<?xml version="1.0" encoding="UTF-8"?><svg id="uuid-7955ef8d-3a51-499d-bf46-49322df5bc0b" xmlns="http://www.w3.org/2000/svg" viewBox="0 0 174.79 121.97"><g><path d="m174.79,93.08c0,15.95-12.88,28.89-28.77,28.89H28.77c-15.89,0-28.77-12.93-28.77-28.89V28.89C0,12.93,12.88,0,28.77,0h117.26c15.89,0,28.77,12.93,28.77,28.89v64.2Z" fill="#eae9ed"/><path d="m154.69,85.7c0,12.29-9.92,22.24-22.15,22.24H42.25c-12.23,0-22.15-9.96-22.15-22.24v-49.43c0-12.29,9.92-22.24,22.15-22.24h90.29c12.23,0,22.15,9.96,22.15,22.24v49.43Z" fill="none" stroke="#fff" stroke-miterlimit="10" stroke-width="5"/></g><g><g><path d="m40.03,79.86c-14.04,14.75-28.43-4.23-36.15-16.21,8.68,1.86,18.47-3.32,26.64-.06,6.77,2.76,8.29,8.22,10.02,14.39" fill="#8eb33e"/><path d="m46.31,87.38c6.14,19.41-17.43,22.85-31.65,23.83,5.82-6.7,6.01-17.78,12.81-23.36,5.68-4.6,11.2-3.29,17.44-1.83" fill="#8eb33e"/><path d="m44.67,86.85c-6.59,11.68-25.08,7.4-34.45,3.94,9.12-6.22,26-18.88,36.25-6.12" fill="#79903a"/></g><g><g><path d="m54.81,10.74c-12,.5-31.5,4-38,16-8,14.5,5.5,30,13,42,5,8.5,10.5,17.5,14.5,26.5,2.5,5,4,12,8.5,15.5,7,5.5,29.5,3,36.5-2.5,8-7-7-40.5-10-51-5.5-16.5-2-46.5-24.5-46.5" fill="#85613c"/><g opacity=".5"><path d="m79.31,57.24c-5.5-16.5-2-46.5-24.5-46.5-9.8.41-24.61,2.82-33.25,10.24,4.76-1.73,9.72-3,14.6-4.29,6.37-1.68,12.97-3.6,19.63-2.74,10.54,1.37,12.94,12.6,14.26,21.41,1.1,7.35,1.76,14.94,4.29,21.98,2.61,7.26,5.93,14.23,8.42,21.54,1.29,3.78,2.33,7.6,3.3,11.47.75,3,1.58,6.11,1.62,9.23.04,3-.57,5.74-1.93,8.42-.48.95-.97,1.89-1.41,2.83,2.03-.76,3.75-1.63,4.99-2.6,8-7-7-40.5-10-51Z" fill="#66492f"/></g><path d="m81.62,102.77c.54-6.47-1.13-13.08-3.44-19.09-4.82-12.54-12.87-23.64-15.3-37.05-1.04-5.73-.81-11.87-2.95-17.34-2.41-6.16-6.91-9.82-13.57-10.43-10.49-.96-20.98,3.13-29.94,8.62-7.15,14.28,6.01,29.46,13.38,41.25,5,8.5,10.5,17.5,14.5,26.5,2.5,5,4,12,8.5,15.5,4.69,3.68,16.33,3.78,25.61,1.78,1.66-3.03,2.91-6.26,3.2-9.75Z" fill="#ae6344"/></g><g><g opacity=".4"><path d="m59.56,40.75c-3.37,11.02-13.02,26.81-22.87,32.98,6.99-11.51,13.67-23.06,22.87-32.98h0Z" fill="#714f2b"/><path d="m64.81,60.79c-2.29,7.99-8.08,14.27-13.61,20.17-1.89,1.93-3.81,3.75-5.89,5.65,1.41-5.41,4.81-9.93,8.21-14.18,3.49-4.23,7.21-7.91,11.29-11.64h0Z" fill="#714f2b"/><path d="m70.19,74.86c-1.92,5.28-4.84,9.92-8.07,14.42-3.31,4.45-6.84,8.64-11.3,12.06,1.91-5.28,4.84-9.92,8.07-14.42,3.31-4.44,6.85-8.63,11.3-12.06h0Z" fill="#714f2b"/><path d="m77.31,88.79c-1.01,4.25-3.04,7.92-5.41,11.48-2.44,3.5-5.12,6.73-8.71,9.22,1.01-4.25,3.04-7.93,5.41-11.48,2.45-3.5,5.13-6.73,8.71-9.22h0Z" fill="#714f2b"/><path d="m35.81,46.49c-.5,5.07-2.91,11.19-8,13.13.69-5.19,2.89-10.91,8-13.13h0Z" fill="#714f2b"/><path d="m43.56,36.61c-.44-5.19,3.5-10.18,8-12.38-.05,5.36-3.6,9.66-8,12.38h0Z" fill="#714f2b"/><path d="m35.81,20.74c-1.24,5.14-3.71,9.69-6.42,14.12-2.77,4.4-5.84,8.43-9.58,12.13.98-5.22,3.5-9.81,6.19-14.25,2.8-4.39,5.87-8.47,9.81-12h0Z" fill="#714f2b"/></g><g opacity=".6"><path d="m59.56,39.75c-2.83,6.11-6.31,11.87-10.01,17.48-3.81,5.51-7.68,11.17-12.86,15.5,8.25-10.27,15.21-22.26,22.87-32.98h0Z" fill="#714f2b"/><path d="m64.81,59.79c-4.79,9.77-13,17.23-19.5,25.83,4.79-9.78,13.01-17.22,19.5-25.83h0Z" fill="#714f2b"/><path d="m70.19,73.86c-5.61,9.41-12.1,18.29-19.37,26.48,5.6-9.41,12.11-18.28,19.37-26.48h0Z" fill="#714f2b"/><path d="m77.31,87.79c-3.84,7.45-8.58,14.42-14.12,20.7,3.83-7.45,8.59-14.41,14.12-20.7h0Z" fill="#714f2b"/><path d="m35.81,45.49c-1.62,3.52-3.09,7.06-5.33,10.24-.75,1.05-1.56,2.13-2.67,2.88.62-1.15,1.1-2.32,1.66-3.47,1.72-3.43,3.36-7.12,6.34-9.66h0Z" fill="#714f2b"/><path d="m43.56,35.61c1.27-4.84,4.63-8.78,8-12.38-1.63,4.72-4.92,8.53-8,12.38h0Z" fill="#714f2b"/><path d="m35.81,19.74c-4.34,9.32-10.21,17.79-16,26.25,3.99-9.49,9.91-18,16-26.25h0Z" fill="#714f2b"/></g></g><g><path d="m47.27,37.88c1.48,4.42-.94,9.28-5.4,10.87-4.45,1.58-9.26-.71-10.74-5.13-1.47-4.42.94-9.28,5.4-10.87,4.45-1.59,9.26.71,10.74,5.13Z" fill="#fff"/><path d="m44.53,38.86c.98,2.92-.62,6.13-3.56,7.17-2.94,1.05-6.11-.47-7.09-3.39-.97-2.91.62-6.12,3.56-7.17,2.94-1.05,6.11.47,7.09,3.39Z" fill="#85613c"/></g></g><g><g><path d="m87.65,18.82c3.07,4.96,6.83,12.67,9,17.17,3.48,7.42,5.36,9.52,9.04,1.29,4.6-10-6.82-21.67-18.04-18.46" fill="#e0be41"/><path d="m87.65,18.82c.26.42.52.86.79,1.32,5.99-.75,11.81,1.98,14.7,7.39,2.33,4.35.62,10.97-3.44,13.89,1.87,2.25,3.53,1.37,5.99-4.14,4.6-10-6.82-21.67-18.04-18.46Z" fill="#b27844"/><g><g opacity=".5"><path d="m99.84,36.44c1.61,0,1.61-2.5,0-2.5s-1.61,2.5,0,2.5h0Z" fill="#b27844"/></g><g opacity=".5"><path d="m96.18,24.99c1.61,0,1.61-2.5,0-2.5s-1.61,2.5,0,2.5h0Z" fill="#b27844"/></g><g opacity=".5"><path d="m100.45,29.46c1.16,0,1.16-1.8,0-1.8s-1.16,1.8,0,1.8h0Z" fill="#b27844"/></g><g opacity=".5"><path d="m95.74,29.7c.97,0,.97-1.5,0-1.5s-.97,1.5,0,1.5h0Z" fill="#b27844"/></g></g></g><g><path d="m97.83,43.01c-9.5,11,2.25,27.87,14.25,26.37,20-2.5-8.25-20.87-14.25-26.37" fill="#e0be41"/><path d="m102.22,62.86c-4.94-4.88-6.02-12.1-2.48-18.23-.76-.62-1.42-1.16-1.91-1.62-9.5,11,2.25,27.87,14.25,26.37,6.63-.83,7.95-3.4,6.55-6.67-5.27,2.88-11.55,4.94-16.4.15Z" fill="#b27844"/><g><g opacity=".5"><path d="m101.58,52.3c1.61,0,1.61-2.5,0-2.5s-1.61,2.5,0,2.5h0Z" fill="#b27844"/></g><g opacity=".5"><path d="m111.58,62.8c1.61,0,1.61-2.5,0-2.5s-1.61,2.5,0,2.5h0Z" fill="#b27844"/></g><g opacity=".5"><path d="m103.58,59.29c1.16,0,1.16-1.8,0-1.8s-1.16,1.8,0,1.8h0Z" fill="#b27844"/></g><g opacity=".5"><path d="m108.58,55.8c.97,0,.97-1.5,0-1.5s-.97,1.5,0,1.5h0Z" fill="#b27844"/></g></g></g><g><path d="m77.24,5.24c-14.5,5-9.5,31,6,31,11,0,9.5-4,5-12-3.5-6-7.62-12-11-19" fill="#e0be41"/><path d="m74.21,26.63c-3.02-6.07-1.88-15.69,3.74-20-.23-.46-.47-.92-.7-1.4-14.5,5-9.5,31,6,31,6.03,0,8.3-1.2,8.38-3.61-6.09,2.88-14.36.15-17.42-6Z" fill="#b27844"/><g><g opacity=".5"><path d="m86.91,30.32c1.61,0,1.61-2.5,0-2.5s-1.61,2.5,0,2.5h0Z" fill="#b27844"/></g><g opacity=".5"><path d="m77.25,16.32c1.61,0,1.61-2.5,0-2.5s-1.61,2.5,0,2.5h0Z" fill="#b27844"/></g><g opacity=".5"><path d="m77.58,25.14c1.16,0,1.16-1.8,0-1.8s-1.16,1.8,0,1.8h0Z" fill="#b27844"/></g><g opacity=".5"><path d="m82.58,20.65c.97,0,.97-1.5,0-1.5s-.97,1.5,0,1.5h0Z" fill="#b27844"/></g><g opacity=".5"><path d="m81.08,28.65c.97,0,.97-1.5,0-1.5s-.97,1.5,0,1.5h0Z" fill="#b27844"/></g></g></g><g><path d="m83.69,13.72c5.65,1.44,13.71,4.38,18.4,6.11,7.66,2.93,10.46,3.13,7.4-5.35-3.63-10.4-19.95-10.86-25.8-.76" fill="#e0be41"/><path d="m83.69,13.72c.48.12.97.26,1.48.4,3.79-4.7,9.87-6.77,15.71-4.89,4.7,1.51,8.06,7.47,7.17,12.38,2.91.32,3.49-1.46,1.44-7.14-3.63-10.4-19.95-10.86-25.8-.76Z" fill="#b27844"/><g><g opacity=".5"><path d="m103.83,18.29c1.61,0,1.61-2.5,0-2.5s-1.61,2.5,0,2.5h0Z" fill="#b27844"/></g><g opacity=".5"><path d="m93.24,12.58c1.61,0,1.61-2.5,0-2.5s-1.61,2.5,0,2.5h0Z" fill="#b27844"/></g><g opacity=".5"><path d="m99.66,12.75c1.16,0,1.16-1.8,0-1.8s-1.16,1.8,0,1.8h0Z" fill="#b27844"/></g><g opacity=".5"><path d="m96.55,16.14c.97,0,.97-1.5,0-1.5s-.97,1.5,0,1.5h0Z" fill="#b27844"/></g></g></g><g><path d="m94.55,36.91c-14.42-1.8-21.95,17.33-14.04,26.49,13.17,15.26,12.79-18.44,14.04-26.49" fill="#e0be41"/><path d="m80.47,51.58c1.32-6.82,6.73-11.72,13.8-12.18.09-.98.18-1.82.29-2.49-14.42-1.8-21.95,17.33-14.04,26.49,4.37,5.06,7.24,4.73,9.18,1.75-5.32-2.78-10.52-6.87-9.22-13.57Z" fill="#b27844"/><g><g opacity=".5"><path d="m89.94,45.74c1.61,0,1.61-2.5,0-2.5s-1.61,2.5,0,2.5h0Z" fill="#b27844"/></g><g opacity=".5"><path d="m86.75,59.88c1.61,0,1.61-2.5,0-2.5s-1.61,2.5,0,2.5h0Z" fill="#b27844"/></g><g opacity=".5"><path d="m84.95,51.12c1.16,0,1.16-1.8,0-1.8s-1.16,1.8,0,1.8h0Z" fill="#b27844"/></g><g opacity=".5"><path d="m90.49,53.28c.97,0,.97-1.5,0-1.5s-.97,1.5,0,1.5h0Z" fill="#b27844"/></g></g></g><g><path d="m90.16,67.94c-12.49,8.9-.33,32.42,14.53,28.03,10.55-3.12,7.98-6.53,1.4-12.92-5.06-4.76-10.71-9.35-15.93-15.11" fill="#e0be41"/><path d="m93.3,89.31c-4.61-4.97-6.25-14.51-2.08-20.24-.36-.38-.71-.75-1.07-1.14-12.49,8.9-.33,32.42,14.53,28.03,5.78-1.71,7.62-3.5,7.02-5.83-5.03,4.49-13.73,4.21-18.41-.82Z" fill="#b27844"/><g><g opacity=".5"><path d="m106.18,89.31c1.61,0,1.61-2.5,0-2.5s-1.61,2.5,0,2.5h0Z" fill="#b27844"/></g><g opacity=".5"><path d="m92.94,78.62c1.61,0,1.61-2.5,0-2.5s-1.61,2.5,0,2.5h0Z" fill="#b27844"/></g><g opacity=".5"><path d="m95.86,86.97c1.16,0,1.16-1.8,0-1.8s-1.16,1.8,0,1.8h0Z" fill="#b27844"/></g><g opacity=".5"><path d="m99.43,81.24c.97,0,.97-1.5,0-1.5s-.97,1.5,0,1.5h0Z" fill="#b27844"/></g><g opacity=".5"><path d="m100.25,89.34c.97,0,.97-1.5,0-1.5s-.97,1.5,0,1.5h0Z" fill="#b27844"/></g></g></g><g><path d="m100.64,74.61c4.72,3.43,11.12,9.13,14.84,12.47,6.04,5.55,8.56,6.78,8.85-2.23.46-11-14.53-17.46-23.7-10.24" fill="#e0be41"/><path d="m100.64,74.61c.4.29.81.6,1.23.92,5.26-2.96,11.68-2.64,16.4,1.26,3.81,3.14,4.73,9.92,2.08,14.16,2.58,1.37,3.78-.07,3.98-6.1.46-11-14.53-17.46-23.7-10.24Z" fill="#b27844"/><g><g opacity=".5"><path d="m118.12,86.39c1.61,0,1.61-2.5,0-2.5s-1.61,2.5,0,2.5h0Z" fill="#b27844"/></g><g opacity=".5"><path d="m110.4,77.18c1.61,0,1.61-2.5,0-2.5s-1.61,2.5,0,2.5h0Z" fill="#b27844"/></g><g opacity=".5"><path d="m116.17,79.68c1.16,0,1.16-1.8,0-1.8s-1.16,1.8,0,1.8h0Z" fill="#b27844"/></g><g opacity=".5"><path d="m111.97,81.67c.97,0,.97-1.5,0-1.5s-.97,1.5,0,1.5h0Z" fill="#b27844"/></g></g></g><g><path d="m92.79,99.41c1.77,14.43,22.16,17.05,29.11,7.15,11.58-16.5-21.01-7.91-29.11-7.15" fill="#e0be41"/><path d="m110.45,109.49c-6.93.38-13.01-3.67-15.18-10.41-.97.15-1.81.27-2.48.33,1.77,14.43,22.16,17.05,29.11,7.15,3.84-5.47,2.82-8.18-.55-9.33-1.4,5.84-4.09,11.88-10.9,12.26Z" fill="#b27844"/><g><g opacity=".5"><path d="m101.27,103.28c1.61,0,1.61-2.5,0-2.5s-1.61,2.5,0,2.5h0Z" fill="#b27844"/></g><g opacity=".5"><path d="m115.76,102.92c1.61,0,1.61-2.5,0-2.5s-1.61,2.5,0,2.5h0Z" fill="#b27844"/></g><g opacity=".5"><path d="m108.04,106.38c1.16,0,1.16-1.8,0-1.8s-1.16,1.8,0,1.8h0Z" fill="#b27844"/></g><g opacity=".5"><path d="m108.93,100.28c.97,0,.97-1.5,0-1.5s-.97,1.5,0,1.5h0Z" fill="#b27844"/></g></g></g><g><path d="m118.1,58.68c15.06-2.92,13.75-29.36-1.6-31.54-10.89-1.54-9.97,2.63-6.63,11.18,2.62,6.43,5.87,12.95,8.23,20.35" fill="#e0be41"/><path d="m124.1,37.92c2.14,6.44-.34,15.8-6.51,19.27.17.49.34.98.5,1.48,15.06-2.92,13.75-29.36-1.6-31.54-5.97-.84-8.38.03-8.8,2.4,6.44-2,14.24,1.86,16.41,8.38Z" fill="#b27844"/><g><g opacity=".5"><path d="m111.86,34.97c1.61,0,1.61-2.5,0-2.5s-1.61,2.5,0,2.5h0Z" fill="#b27844"/></g><g opacity=".5"><path d="m119.47,50.19c1.61,0,1.61-2.5,0-2.5s-1.61,2.5,0,2.5h0Z" fill="#b27844"/></g><g opacity=".5"><path d="m120.43,40.72c1.16,0,1.16-1.8,0-1.8s-1.16,1.8,0,1.8h0Z" fill="#b27844"/></g><g opacity=".5"><path d="m114.87,44.16c.97,0,.97-1.5,0-1.5s-.97,1.5,0,1.5h0Z" fill="#b27844"/></g><g opacity=".5"><path d="m117.47,36.45c.97,0,.97-1.5,0-1.5s-.97,1.5,0,1.5h0Z" fill="#b27844"/></g></g></g></g><g><g><path d="m151.07,117.49l-29.04-49.83c-1.07-1.83-1.96-6.77-.13-7.83h0c1.83-1.07,5.69,2.14,6.75,3.97l29.04,49.83" fill="#79903a"/><path d="m126.61,66.33c1.71,1.95,3.17,4.11,4.39,6.41,2.88,5.41,4.68,11.29,7.87,16.56,1.64,2.71,3.4,5.34,5.08,8.02,1.61,2.56,3,5.34,5.1,7.55,1.89,1.98,4.14,3.45,6.4,4.91l-26.79-45.97c-1.07-1.83-4.92-5.04-6.75-3.97-.24.14-.44.36-.59.62,1.55,2.21,3.51,3.85,5.3,5.88Z" fill="#5f7e37" opacity=".5"/><path d="m132.33,78.81c1.67.9,3.21,2.29,5.24,1.03.11-.07.21-.15.31-.22l-9.22-15.82c-1.07-1.83-4.92-5.04-6.75-3.97-1.83,1.07-.94,6.01.13,7.83l6.64,11.39c1.13-.64,2.43-.9,3.66-.24Z" fill="#5f7e37"/><g><g><path d="m145.41,105.27c3.05,3.05,4.73,7.06,6.23,11.03-2.73-3.32-4.32-7.21-6.23-11.03h0Z" fill="#94a553"/><path d="m142.47,96.08c2.67,4.23,5.6,8.37,7.05,13.25-1.49-2.01-2.67-4.26-3.89-6.42-1.22-2.16-2.65-4.35-3.16-6.83h0Z" fill="#94a553"/><path d="m149.79,102.52c2.96,2.88,4.5,6.85,5.51,10.77-2.04-2.93-3.92-7.57-5.51-10.77h0Z" fill="#94a553"/></g><path d="m149.48,105.99c2.19,2.25,3.8,5.13,4.15,8.29-1.66-2.69-3.11-5.29-4.15-8.29h0Z" fill="#94a553"/><path d="m143.29,93.39c2.6,2.44,4.04,5.72,5.17,9.04-2.35-2.67-3.71-5.83-5.17-9.04h0Z" fill="#94a553"/></g><g><path d="m122.66,66.92c-.75-.77-.51-2.29.65-2.63,1.1-.33,2.21.6,2.16,1.66-.59-.48-1.2-.89-1.88-.71-.68.22-.8.94-.94,1.67h0Z" fill="#79903a"/><path d="m126.76,70.32c-.99-.69-.71-2.31.51-2.61,1.06-.33,2.3.49,2.26,1.58-.63-.52-1.26-.81-1.98-.62-.76.21-.82.86-.79,1.65h0Z" fill="#79903a"/><path d="m123.56,62.83c-.88-.59-.6-2.03.47-2.26.94-.26,1.98.53,1.87,1.48-1.18-.93-2.35-.69-2.34.79h0Z" fill="#79903a"/><path d="m127.13,65.48c-.51-.37-.45-1.23.12-1.65.56-.49,1.64-.06,1.46.73-.66-.27-1.05.05-1.58.92h0Z" fill="#79903a"/><path d="m123.48,69.82c-.6-.31-.57-1.2-.1-1.64.45-.48,1.44-.41,1.62.27-.48.08-.67.18-.93.45-.17.17-.37.35-.59.92h0Z" fill="#79903a"/><path d="m129.26,72.63c-.67-.62-.45-1.83.37-2.29.83-.53,2.05.13,2.02,1.09-1.18-.74-2.05-.26-2.39,1.2h0Z" fill="#79903a"/><path d="m125.73,74.01c-.87-.5-.45-1.86.44-2.11.8-.33,1.95.22,1.88,1.14-.96-.59-2.3-.32-2.33.97h0Z" fill="#79903a"/><path d="m121.11,63.76c-.89-.57-.53-2.3.68-2.13.59.13.92.63.95,1.18-.34-.07-.6-.19-.81-.23-.23-.04-.28,0-.28.03-.26.2-.38.72-.54,1.15h0Z" fill="#79903a"/></g></g><g><path d="m159.07,111.49l-29.04-49.83c-1.07-1.83-1.96-6.77-.13-7.83h0c1.83-1.07,5.69,2.14,6.75,3.97l29.04,49.84" fill="#79903a"/><path d="m134.61,60.33c1.71,1.95,3.17,4.11,4.39,6.41,2.88,5.41,4.68,11.29,7.87,16.56,1.64,2.71,3.4,5.34,5.08,8.02,1.61,2.56,3,5.34,5.1,7.55,1.89,1.98,4.14,3.45,6.4,4.91l-26.79-45.97c-1.07-1.83-4.92-5.04-6.75-3.97-.24.14-.44.36-.59.62,1.55,2.21,3.51,3.85,5.3,5.88Z" fill="#5f7e37" opacity=".5"/><path d="m140.33,72.81c1.67.9,3.21,2.29,5.24,1.03.11-.07.21-.15.31-.22l-9.22-15.82c-1.07-1.83-4.92-5.04-6.75-3.97-1.83,1.07-.94,6.01.13,7.83l6.64,11.39c1.13-.64,2.43-.9,3.66-.24Z" fill="#5f7e37"/><g><g><path d="m153.41,99.27c3.05,3.05,4.73,7.06,6.23,11.03-2.73-3.32-4.32-7.21-6.23-11.03h0Z" fill="#94a553"/><path d="m150.47,90.08c2.67,4.23,5.6,8.37,7.05,13.25-1.49-2.01-2.67-4.26-3.89-6.42-1.22-2.16-2.65-4.35-3.16-6.83h0Z" fill="#94a553"/><path d="m157.79,96.52c2.96,2.88,4.5,6.85,5.51,10.77-2.04-2.93-3.92-7.57-5.51-10.77h0Z" fill="#94a553"/></g><path d="m157.48,99.99c2.19,2.25,3.8,5.13,4.15,8.29-1.66-2.69-3.11-5.29-4.15-8.29h0Z" fill="#94a553"/><path d="m151.29,87.39c2.6,2.44,4.04,5.72,5.17,9.04-2.35-2.67-3.71-5.83-5.17-9.04h0Z" fill="#94a553"/></g><g><path d="m130.66,60.92c-.75-.77-.51-2.29.65-2.63,1.1-.33,2.21.6,2.16,1.66-.59-.48-1.2-.89-1.88-.71-.68.22-.8.94-.94,1.67h0Z" fill="#79903a"/><path d="m134.76,64.32c-.99-.69-.71-2.31.51-2.61,1.06-.33,2.3.49,2.26,1.58-.63-.52-1.26-.81-1.98-.62-.76.21-.82.86-.79,1.65h0Z" fill="#79903a"/><path d="m131.56,56.83c-.88-.59-.6-2.03.47-2.26.94-.26,1.98.53,1.87,1.48-1.18-.93-2.35-.69-2.34.79h0Z" fill="#79903a"/><path d="m135.13,59.48c-.51-.37-.45-1.23.12-1.65.56-.49,1.64-.06,1.46.73-.66-.27-1.05.05-1.58.92h0Z" fill="#79903a"/><path d="m131.48,63.82c-.6-.31-.57-1.2-.1-1.64.45-.48,1.44-.41,1.62.27-.48.08-.67.18-.93.45-.17.17-.37.35-.59.92h0Z" fill="#79903a"/><path d="m137.26,66.63c-.67-.62-.45-1.83.37-2.29.83-.53,2.05.13,2.02,1.09-1.18-.74-2.05-.26-2.39,1.2h0Z" fill="#79903a"/><path d="m133.73,68.01c-.87-.5-.45-1.86.44-2.11.8-.33,1.95.22,1.88,1.14-.96-.59-2.3-.32-2.33.97h0Z" fill="#79903a"/><path d="m129.11,57.76c-.89-.57-.53-2.3.68-2.13.59.13.92.63.95,1.18-.34-.07-.6-.19-.81-.23-.23-.04-.28,0-.28.03-.26.2-.38.72-.54,1.15h0Z" fill="#79903a"/></g></g><g><path d="m167.07,105.49l-29.04-49.83c-1.07-1.83-1.96-6.77-.13-7.83h0c1.83-1.07,5.69,2.14,6.75,3.97l29.04,49.84" fill="#79903a"/><path d="m142.61,54.33c1.71,1.95,3.17,4.11,4.39,6.41,2.88,5.41,4.68,11.29,7.87,16.56,1.64,2.71,3.4,5.34,5.08,8.02,1.61,2.56,3,5.34,5.1,7.55,1.89,1.98,4.14,3.45,6.4,4.91l-26.79-45.97c-1.07-1.83-4.92-5.04-6.75-3.97-.24.14-.44.36-.59.62,1.55,2.21,3.51,3.85,5.3,5.88Z" fill="#5f7e37" opacity=".5"/><path d="m148.33,66.81c1.67.9,3.21,2.29,5.24,1.03.11-.07.21-.15.31-.22l-9.22-15.82c-1.07-1.83-4.92-5.04-6.75-3.97-1.83,1.07-.94,6.01.13,7.83l6.64,11.39c1.13-.64,2.43-.9,3.66-.24Z" fill="#5f7e37"/><g><g><path d="m161.41,93.27c3.05,3.05,4.73,7.06,6.23,11.03-2.73-3.32-4.32-7.21-6.23-11.03h0Z" fill="#94a553"/><path d="m158.47,84.08c2.67,4.23,5.6,8.37,7.05,13.25-1.49-2.01-2.67-4.26-3.89-6.42-1.22-2.16-2.65-4.35-3.16-6.83h0Z" fill="#94a553"/><path d="m165.79,90.52c2.96,2.88,4.5,6.85,5.51,10.77-2.04-2.93-3.92-7.57-5.51-10.77h0Z" fill="#94a553"/></g><path d="m165.48,93.99c2.19,2.25,3.8,5.13,4.15,8.29-1.66-2.69-3.11-5.29-4.15-8.29h0Z" fill="#94a553"/><path d="m159.29,81.39c2.6,2.44,4.04,5.72,5.17,9.04-2.35-2.67-3.71-5.83-5.17-9.04h0Z" fill="#94a553"/></g><g><path d="m138.66,54.92c-.75-.77-.51-2.29.65-2.63,1.1-.33,2.21.6,2.16,1.66-.59-.48-1.2-.89-1.88-.71-.68.22-.8.94-.94,1.67h0Z" fill="#79903a"/><path d="m142.76,58.32c-.99-.69-.71-2.31.51-2.61,1.06-.33,2.3.49,2.26,1.58-.63-.52-1.26-.81-1.98-.62-.76.21-.82.86-.79,1.65h0Z" fill="#79903a"/><path d="m139.56,50.83c-.88-.59-.6-2.03.47-2.26.94-.26,1.98.53,1.87,1.48-1.18-.93-2.35-.69-2.34.79h0Z" fill="#79903a"/><path d="m143.13,53.48c-.51-.37-.45-1.23.12-1.65.56-.49,1.64-.06,1.46.73-.66-.27-1.05.05-1.58.92h0Z" fill="#79903a"/><path d="m139.48,57.82c-.6-.31-.57-1.2-.1-1.64.45-.48,1.44-.41,1.62.27-.48.08-.67.18-.93.45-.17.17-.37.35-.59.92h0Z" fill="#79903a"/><path d="m145.26,60.63c-.67-.62-.45-1.83.37-2.29.83-.53,2.05.13,2.02,1.09-1.18-.74-2.05-.26-2.39,1.2h0Z" fill="#79903a"/><path d="m141.73,62.01c-.87-.5-.45-1.86.44-2.11.8-.33,1.95.22,1.88,1.14-.96-.59-2.3-.32-2.33.97h0Z" fill="#79903a"/><path d="m137.11,51.76c-.89-.57-.53-2.3.68-2.13.59.13.92.63.95,1.18-.34-.07-.6-.19-.81-.23-.23-.04-.28,0-.28.03-.26.2-.38.72-.54,1.15h0Z" fill="#79903a"/></g></g></g><g><circle cx="142.43" cy="28.83" r="21" fill="#fff" stroke="#bfc3d0" stroke-miterlimit="10" stroke-width="3"/><path d="m157.55,28.83c0,8.35-6.77,15.12-15.12,15.12s-15.12-6.77-15.12-15.12,6.77-15.12,15.12-15.12,15.12,6.77,15.12,15.12Z" fill="#c94035"/><g opacity=".3"><path d="m145.47,19.89s-.29-.02-.83-.06c-.54-.04-1.32-.03-2.31.06-.98.11-2.15.34-3.35.89-1.19.55-2.36,1.48-3.21,2.77-.86,1.29-1.3,2.98-1.43,4.8,0,.45-.07.94-.03,1.37l.03.77.1.64c.15.85.4,1.78.85,2.57.44.79.99,1.54,1.72,2.08.72.54,1.55.93,2.44,1.16.89.23,1.87.2,2.84.08.49-.09.97-.17,1.46-.35l.36-.11.18-.05c.09-.04-.09.04-.07.03h.02s.05-.03.05-.03l.1-.04c.12-.06.28-.12.38-.17l.27-.15c1.64-.92,3.11-2.55,3.95-4.31.84-1.76,1.07-3.7.07-4.68-.48-.53-1.25-.89-2.12-1.1-.84-.21-1.87-.33-2.63-.25-1.69.15-3.33.88-4.17,1.96-.42.54-.62,1.17-.61,1.81.02.74.15,1.28.46,1.79.6,1.01,1.79,1.29,2.61.92.83-.37,1.29-1.06,1.54-1.51.23-.48.33-.75.33-.75,0,0-.05.28-.18.82-.18.5-.46,1.35-1.42,1.98-.47.3-1.13.48-1.84.38-.71-.09-1.44-.51-1.96-1.15-.53-.62-.87-1.54-.98-2.36-.14-.92.07-1.99.62-2.88,1.12-1.79,3.12-2.86,5.32-3.23,1.2-.19,2.23-.12,3.42.06,1.16.19,2.44.66,3.49,1.67.51.51.93,1.14,1.2,1.83.26.69.36,1.41.37,2.1.02,1.39-.36,2.67-.9,3.84-1.11,2.32-2.78,4.32-5.13,5.7l-.49.25-.41.18-.29.12-.23.07-.46.14c-.61.21-1.25.31-1.89.42-1.29.15-2.64.17-3.95-.18-1.3-.33-2.52-.96-3.52-1.82-1.02-.85-1.76-1.93-2.3-3.05-.55-1.13-.84-2.29-.94-3.49-.02-.3-.05-.61-.06-.9l.03-.76c0-.59.11-1.09.16-1.62.29-2.09,1.04-4.09,2.27-5.56,1.19-1.5,2.76-2.4,4.18-2.83,1.43-.45,2.72-.46,3.75-.41,1.03.06,1.83.25,2.35.38.52.14.8.22.8.22Z" fill="#fff"/></g></g></g></svg>
