<?xml version="1.0" encoding="UTF-8"?><svg id="uuid-f0aa9abe-ab96-4cc3-b7b5-a4e4960f4d65" xmlns="http://www.w3.org/2000/svg" viewBox="0 0 109.53 160.55"><g><path d="m108.86,14.76l-.39-.28c-.54-.4-1.05-.78-1.59-1.1-3.28-1.92-6.53-4.02-9.66-6.24-.9-.64-1.64-1.13-2.34-1.55-3.56-2.11-6.65-3.39-9.74-4.03-.75-.15-1.51-.23-2.31-.3-.68-.06-1.38-.13-2.08-.25-1.88-.33-3.75-.33-5.73-.34h-.5s-.09,0-.13,0c-2.28,0-4.58.27-6.82.53-.51.06-1.02.12-1.53.18-2.59.29-5.12.92-7.51,1.88-2.21.89-3.71,1.82-4.86,3.02-2.25,2.33-2.91,4.95-1.98,7.79.24.73.64,1.49,1.24,2.34,1,1.42,2.24,2.6,3.71,3.52.34.21.98.61,1.04,1.53l.02.25-.89,1.16c-2.03,2.64-3.49,5.61-4.34,8.84-.5,1.9-.87,3.46-1.17,4.91-.38,1.86-.48,3.87-.32,6.16.06.84.52,1.4,1.46,1.77.13.03.46-.1.53-.21.13-.29.25-.54.32-.79.33-1.09.44-2.32.36-3.87-.05-1.08-.07-2.35.23-3.66.75-3.23,1.55-5.87,2.52-8.3.7-1.77,1.73-3.23,3.04-4.34l.27-.22.34.09q2.49.67,4.69-.44l.16-.08c1.08-.54,2.2-1.11,3.33-1.61,4.62-2.04,5.73-2.33,10.8-1.78,1.31.14,2.64.21,3.94.28,1.09.06,2.23.12,3.34.22,4.05.37,7.92-.22,11.82-1.8,1.74-.71,3.52-1.23,5.3-1.56,1.46-.27,2.91-.66,4.26-1.03.31-.08.62-.27.95-.46.08-.04.15-.09.23-.13,0-.03,0-.06-.01-.07Zm-45.71-6.46c-.09.47-.31.9-.55,1.31-.23.4-.51.82-.94,1-1.22.52-.61-1.81-.39-2.3.29-.65.83-1.21,1.5-1.44.02,0,.05-.01.07,0,.03,0,.05.03.07.06.28.39.34.9.25,1.37Zm21.57-1.37c-.25.53-.64.98-1.03,1.42-.53.59-1.08,1.18-1.73,1.64-.78.56-1.68.94-2.57,1.31-.47.19-.96.39-1.46.35-.85-.07-1.65-.99-1.35-1.82.31-.86,1.37-1.76,2.04-2.35,1.56-1.35,3.49-2.28,5.52-2.6.19-.03.41-.05.56.07.08.07.13.17.17.27.2.55.1,1.18-.15,1.71Z" fill="#839a3b"/><path d="m109.29,14.26c-.68-.5-1.35-1.03-2.08-1.45-3.3-1.93-6.5-4-9.61-6.21-.78-.55-1.57-1.09-2.39-1.58-3.11-1.85-6.38-3.37-9.94-4.11-1.45-.3-2.95-.31-4.41-.56C78.75-.01,76.64,0,74.52,0c-2.87-.01-5.71.39-8.55.71-2.63.29-5.22.93-7.69,1.93-1.88.76-3.67,1.7-5.09,3.17-2.31,2.4-3.2,5.21-2.13,8.46.29.89.78,1.74,1.32,2.51,1.04,1.49,2.35,2.73,3.9,3.7.36.23.69.46.73,1.01-.22.29-.48.62-.73.96-2.09,2.73-3.58,5.75-4.45,9.07-.43,1.64-.84,3.29-1.17,4.95-.42,2.09-.48,4.21-.33,6.33.08,1.18.8,1.92,1.87,2.34.42.17,1.19-.13,1.37-.54.13-.29.27-.58.36-.88.4-1.34.46-2.72.39-4.1-.06-1.17-.05-2.33.22-3.48.65-2.79,1.43-5.54,2.49-8.21.63-1.6,1.56-2.99,2.85-4.08q2.75.74,5.19-.5c1.14-.57,2.27-1.15,3.43-1.66,4.6-2.03,5.55-2.26,10.47-1.73,2.43.26,4.87.28,7.29.51,4.21.39,8.23-.26,12.13-1.85,1.67-.68,3.39-1.19,5.17-1.53,1.45-.27,2.89-.65,4.32-1.05.5-.14.95-.44,1.41-.7.34-.19.35-.86.01-1.1Zm-57.04,28.39c-.37-.63-.36-1.13,0-1.71v1.71ZM99.5,9.89c.37.27.3.78-.15,1.02-.93.49-1.86,1-2.82,1.42-1.54.68-3.11,1.32-4.68,1.93-.48.19-1.01.25-1.53.3-.42.04-.85,0-1.26-.05-1.74-.2-3.49-.42-5.46-.66.98-.88,2.02-1.16,2.91-1.68,1.01-.58,2.04-1.11,3.04-1.71.9-.54,1.79-1.12,2.65-1.74.85-.61,1.66-1.29,2.52-1.96,1.76.88,3.27,2.02,4.79,3.14Zm-25.22-7.17c.58-.52,1.25-.76,2.03-.77,3.19-.04,6.37.14,9.48.83,2.7.6,5.19,1.76,7.53,3.08-.1.76-.56,1.05-.96,1.37-1.77,1.36-3.69,2.48-5.67,3.52-.94.49-1.93.88-2.87,1.36-2.5,1.28-5.11,1.95-7.95,1.83-3-.13-5.88.68-8.73,1.5-.28.08-.59.07-.89.07-.06,0-.15-.13-.18-.22-.03-.1-.04-.22-.01-.31,1.55-4.89,4.47-8.86,8.23-12.26Zm-20.76,12.07c-1.37-2.31-1.27-4.61.26-6.83.6-.88,1.36-1.6,2.3-2.11.13-.07.36,0,.53.05.06.02.12.19.11.28-.1.73-.19,1.46-.32,2.18-.21,1.15-.23,2.3.03,3.45.28,1.23.48,2.48.81,3.7.32,1.19.74,2.36,1.18,3.74-2.1-1.15-3.76-2.54-4.89-4.45Zm6.18,2.97c-.31-.54-.6-1.12-.78-1.73-.42-1.42-.83-2.84-1.13-4.28-.46-2.23-.08-4.42.57-6.56.16-.53.61-.89,1.12-1.05,1.2-.39,2.42-.76,3.65-1.03,2.89-.63,5.8-1.1,8.78-1.05.29,0,.58.1.92.16-.12,1.01-1.02,1.35-1.53,1.97-.53.66-1.16,1.23-1.7,1.88-.54.65-1.05,1.32-1.55,2.01-.43.6-.85,1.21-1.22,1.85-.42.73-.8,1.49-1.17,2.24-.37.76-.72,1.53-1.06,2.3-.34.77-.64,1.55-.98,2.36-1.06.52-2.1,1.02-3.15,1.53-.29-.22-.62-.36-.77-.6Zm4.9,3.76c-.68.69-1.54,1-2.47,1.14-.15.02-.4-.14-.5-.28-.1-.14-.17-.41-.11-.56.49-1.32,1.58-1.61,3.03-.8.08.04.11.17.16.26-.04.08-.05.18-.11.25Zm5.09-2.35c-1.62.78-3.28.62-4.95.31-.08-.02-.21-.12-.21-.18,0-.19-.02-.46.09-.57.92-.92,2.1-1.4,3.28-1.86,1.26-.48,2.48-.42,3.53.57.23.21.47.4.94.8-1.1.38-1.93.58-2.68.94Zm10.62-1.01c-.83-.11-1.67-.29-2.51-.28-1.62,0-3.1-.54-4.57-1.11-.24-.09-.42-.36-.63-.55.54-.54,1.18-.64,1.8-.65,2.42-.03,4.84-.06,7.26-.02,1.49.03,2.93.37,4.16,1.3.64.49,1.59.54,2.07,1.37-3.18.29-5.24.26-7.59-.06Zm10.16-.88c-.77-.34-1.57-.59-2.6-.98,1.45-.33,2.55.17,3.69.25,1.06.08,2.11.16,3.64.27-1.85.95-3.25,1.1-4.72.46Zm16.11-2.84c-.04.09-.13.16-.21.22-.09.06-.19.12-.29.13-1.88.19-3.76.46-5.65.52-1.68.05-3.37-.14-5.06-.22-.25-.01-.36-.17-.3-.44.02-.09.1-.21.18-.25,1.05-.49,2.12-.93,3.14-1.48,1.01-.54,1.97-1.19,3.04-1.84,1.55.91,3.09,1.81,4.63,2.71.18.11.34.25.49.4.04.04.05.18.02.24Zm-30.74-2.26c.43.27.93.45,1.26.61.49-.05.81-.05,1.12-.12,2.81-.65,6.65-3.75,7.89-6.4.27-.58.35-1.22-.03-1.81-.35-.54-1.14-.72-2.01-.49-3.75,1.02-6.47,3.4-8.63,6.53-.33.47-.15,1.34.4,1.68Zm1.7-2.23c1.6-2.33,3.81-3.82,6.52-4.56.13-.03.34.16.47.28.05.04.03.22-.02.3-1.43,2.16-3.4,3.65-5.75,4.65-.27.11-.61.05-.89.07-.13-.08-.28-.11-.3-.19-.05-.18-.13-.44-.04-.56Zm-13.55-3.18c-.11-.41-.28-.79-.72-.97-.46-.19-1.13-.05-1.42.38-.4.61-.83,1.23-1.11,1.91-.37.87-.63,1.8-.93,2.7-.14.41,0,.94.3,1.12.37.23.79.35,1.2.16.38-.18.77-.38,1.05-.67,1.07-1.11,1.65-2.44,1.69-3.99-.02-.21-.02-.43-.07-.63Zm-1.58,1.92c-.12.27-.27.53-.43.78-.04.06-.15.06-.24.09-.25-.44.15-.73.27-1.07.1-.29.26-.31.37-.09.04.08.06.21.03.29Z" fill="#123d22"/></g><g><path d="m59.7,40.86c-.02-2.27-.65-4.04-1.92-5.41-1.23-1.33-2.76-2.23-4.53-2.69-1.94-.5-3.87-.45-5.92.16-1.5.45-2.89,1.11-4.36,1.81l-.24.11c-.83.4-1.45.3-1.81.15-.36-.14-.84-.48-1.14-1.27-.18-.49-.34-.98-.51-1.48l-.12-.36c-.94-2.85-2.86-4.77-5.88-5.86-1.43-.52-2.88-.84-4.36-.96-2.28-.18-4.62.11-7.08.87-3,.93-5.74,2.57-8.14,4.86-1.86,1.77-3.64,3.89-5.43,6.47-1.95,2.81-4.15,6.21-5.66,10.11-.75,1.95-1.29,3.6-1.47,5.33-.41,3.96-.62,7.29-.34,10.67.6,7.33,2.29,13.52,5.17,18.93.15.28.29.57.44.86.09.19.19.38.29.57,2.57,5,5.13,10,7.7,15,.25.49.55,1.07.89,1.64.01.02.03.04.04.06.15-.29.31-.62.41-.96,1.21-4.04,3.35-7.69,6.54-11.14,1.35-1.46,2.68-2.94,4.01-4.42,1.62-1.81,3.3-3.67,4.99-5.48,2.81-3,5.71-6,8.51-8.91,1.06-1.09,2.11-2.19,3.16-3.28.23-.24.47-.45.71-.67l.25-.22c.34-.31.85-.3,1.18-.19.38.12.64.37.72.7.06.26.13.52.19.78.17.67.34,1.36.43,2.07.43,3.51.58,6.77.48,9.94-.02.62-.06,1.25-.09,1.87-.05.84-.1,1.71-.11,2.56,0,1.34.09,2.72.18,4.05.07.99.41,1.84,1.02,2.54.68.79,1.24,1.09,1.88,1.02.8-.09,1.33-.62,1.59-1.59.37-1.37.58-2.56.65-3.62.09-1.32.12-2.67.14-3.97.02-.9.04-1.79.07-2.69.1-2.48-.12-4.97-.38-7.52-.37-3.66-1.32-7.21-2.9-10.86l-.16-.37,1.88-2.28c.41-.5.82-1,1.24-1.49.93-1.11,1.88-2.26,2.77-3.42h0c2.08-2.75,3.54-5.53,4.46-8.48.39-1.25.57-2.41.56-3.55Zm-43.05,25.44c-1.7,3.19-3.59,6.42-6.53,8.52-.48.34-1.03.66-1.61.59-.51-.06-.95-.43-1.22-.87-.27-.44-.41-.95-.54-1.45-.37-1.39-.74-2.81-.58-4.24.09-.79.34-1.55.6-2.29.64-1.78,1.28-3.32,2.63-4.67,1.24-1.24,2.82-2.09,4.44-2.72.56-.21,1.13-.41,1.73-.41.6,0,1.22.21,1.59.68.25.32.36.73.45,1.13.18.78.33,1.58.27,2.38-.1,1.2-.66,2.3-1.22,3.36Zm10.29-26.17c-.25.85-1.02,1.44-1.76,1.94-.94.64-1.91,1.25-2.96,1.68-.95.39-1.94.63-2.94.86-.73.17-1.46.35-2.19.52-1.3.31-5.16,1.88-5.09-.72.02-.72.45-1.37.96-1.87.66-.65,1.48-1.13,2.3-1.57,3.29-1.78,7.04-3.16,10.71-2.48.19.03.38.08.54.17.47.28.58.94.42,1.46Zm3.8,30.03c-.07.34-.2.73-.53.86-.95-.41-1.31-1.55-1.5-2.57-.38-2.02-.51-4.09-.39-6.15.03-.48-.03-2.36.47-2.48.64-.15,1.46,1.09,1.66,1.54.35.8.41,1.7.47,2.57.13,2.08.26,4.19-.18,6.22Zm13.9-14.35c-.28.51-.8.96-1.37.86-.49-.09-.81-.54-1.07-.96-2.34-3.9-3.08-8.58-3.09-13.12,0-1.14.51-2.05,1.73-1.58,1.13.43,1.72,1.65,2.13,2.7,1.12,2.85,1.75,5.87,2.04,8.92.1,1.08.15,2.24-.38,3.19Z" fill="#839a3b"/><path d="m55.21,53.3c2-2.64,3.58-5.5,4.57-8.69.38-1.23.6-2.48.59-3.76-.02-2.18-.57-4.21-2.1-5.85-1.33-1.43-2.95-2.39-4.85-2.88-2.11-.55-4.19-.46-6.28.16-1.64.49-3.16,1.23-4.69,1.96-.97.46-1.7.18-2.05-.76-.22-.59-.41-1.2-.61-1.81-1.03-3.15-3.2-5.16-6.28-6.28-3.95-1.43-7.92-1.33-11.87-.1-3.18.99-5.98,2.7-8.4,5.01-2.09,1.99-3.88,4.21-5.52,6.57-2.24,3.23-4.31,6.56-5.74,10.25-.69,1.78-1.32,3.59-1.51,5.51-.37,3.59-.64,7.17-.34,10.79.55,6.74,2.05,13.19,5.25,19.19.25.47.48.95.72,1.42,2.57,5,5.13,10,7.7,15,.29.57.59,1.13.91,1.67.1.17.28.34.46.41.16.06.5.06.55-.04.26-.45.5-.92.65-1.42,1.24-4.15,3.46-7.71,6.39-10.88,3.02-3.27,5.95-6.64,8.99-9.89,3.85-4.1,7.77-8.13,11.67-12.19.29-.3.62-.58.93-.86.2-.18.75-.07.81.16.21.93.5,1.85.61,2.78.4,3.27.58,6.55.48,9.84-.05,1.48-.19,2.97-.2,4.45,0,1.38.09,2.75.19,4.13.08,1.09.47,2.08,1.18,2.9.64.73,1.41,1.36,2.45,1.24,1.2-.14,1.87-1.01,2.16-2.07.33-1.22.59-2.49.67-3.74.15-2.22.12-4.45.21-6.68.1-2.55-.13-5.09-.38-7.62-.39-3.81-1.4-7.47-2.96-11.06.55-.67,1.09-1.31,1.62-1.96,1.34-1.64,2.74-3.24,4.02-4.93Zm-11.21-18.03c2.49-1.6,5.19-2.25,8.14-1.8,1.39.21,2.63.76,3.75,1.59,2.27,1.66,3.13,4.03,2.76,6.68-.51,3.61-2.13,6.8-4.61,9.99-.25-1.27-.38-2.11-.58-2.93-.96-3.88-2.71-7.32-5.79-9.97-.88-.76-1.78-1.49-2.68-2.23-.39-.33-.79-.65-1.16-.95.09-.2.1-.34.17-.39Zm-33.34.64c1.34-1.5,2.58-3.11,4.04-4.49,2.68-2.52,5.86-4.16,9.51-4.83,2.66-.49,5.31-.29,7.89.37,2.95.76,5.08,2.56,5.94,5.63.11.41.24.81.34,1.22.2.83-.31,1.48-1.17,1.47-.53,0-1.06-.04-1.5-.05-.61-.09-1.15-.11-1.66-.25-3.43-.92-6.91-.94-10.42-.75-3.29.18-6.54.59-9.7,1.58-1.01.32-2.01.66-3.02.99-.08.02-.24-.02-.27-.08-.08-.17-.13-.36-.14-.55,0-.09.09-.19.16-.27ZM1.92,59.25c-.12-.28-.2-.61-.21-.92-.05-4.19.64-8.24,2.48-12.03.83-1.71,1.8-3.36,2.71-5.03.58-1.07,1.48-1.76,2.58-2.25,3.31-1.47,6.77-2.43,10.34-2.98,2.73-.42,5.49-.38,8.24-.47,1.59-.05,3.17.13,4.73.52,1.02.25,2.04.46,3.15.71-.18.37-.26.69-.46.91-.77.88-1.57,1.72-2.36,2.58-1.45,1.56-2.62,3.33-3.72,5.14-.4.65-.93,1.1-1.5,1.59-1.17,1-2.48,1.55-3.96,1.86-2.07.44-4.14.88-6.18,1.44-5.64,1.54-10.55,4.34-14.64,8.55-.22.22-.46.44-.73.59-.1.05-.42-.08-.47-.2Zm30.39-15.03c-.08.09-.18.18-.28.26.08-.16.16-.32.24-.48.02.07.07.18.04.22Zm-.46.48c-.19.32-.38.65-.57.97.09-.39.19-.76.57-.97Zm-.71,1.22c-.07.15-.15.29-.22.44-.26-.36.03-.37.22-.44Zm-14.64,36.32c-.78,3.52-.99,7.1-1.39,10.65-.12,1.04-.22,2.09-.34,3.17-1.01-.81-1.69-2.08-3.99-7.41.28-3.04,1.56-5.65,3.41-8.02.71-.91,1.44-1.81,2.19-2.69.09-.11.37-.06.66-.09-.03,1.49-.24,2.96-.55,4.38Zm-.12-6.38c-1.51,1.48-2.81,3.18-4.15,4.82-.94,1.15-1.75,2.39-2.27,3.81-.14.38-.4.72-.63,1.12-3.75-4.84-6.69-13.91-7.32-22.47,1.62-2.74,3.8-5,6.45-6.85,3.08-2.15,6.39-3.76,10.03-4.69,2.26-.57,4.53-1.11,6.8-1.64.4-.09.82-.1,1.21-.15.07.26.22.49.16.62-.32.78-.69,1.55-1.06,2.31-2.64,5.58-4.64,11.38-6.18,17.35-.08.31-.21.6-.27.92-.37,1.95-1.37,3.47-2.78,4.86Zm8.35,7.39c-.07.39-.3.79-.56,1.12-.52.66-1.09,1.29-1.67,1.91-1.71,1.88-3.33,3.83-4.76,5.93-.24.35-.45.72-1.02.85.74-2.92.83-5.89,1.35-8.8.69-3.85,1.17-7.73,2.16-11.53.72-2.77,1.69-5.44,2.93-8.02.07-.14.32-.19.51-.3.8,3.52,1.34,7.07,1.69,10.64.27,2.75-.18,5.49-.64,8.2Zm14.79-15.97c-.07.66-.35,1.21-.8,1.69-.37.38-.73.77-1.09,1.16-3.36,3.53-6.71,7.07-10.08,10.59-.19.2-.5.29-.8.45-.03-.31-.09-.52-.07-.72.6-4.15.01-8.24-.69-12.32-.31-1.77-.57-3.55-.87-5.33-.25-1.52-.02-2.91.71-4.29,2.23-4.22,4.56-8.37,7.26-12.3.29-.43.66-.8,1.05-1.26.28.32.58.52.66.79,1.21,3.84,2.45,7.67,3.55,11.54.52,1.83.74,3.74,1.15,5.59.33,1.48.18,2.95.02,4.42Zm11.64,7.24c0,.63.06,1.27.13,1.9.26,2.22.14,4.44,0,7.34-.12.91-.3,2.49-.55,4.05-.06.39-.32.77-.52,1.13-.19.34-.86.35-1.1.03-.25-.34-.56-.67-.68-1.05-.21-.7-.34-1.44-.43-2.17-.06-.52,0-1.06,0-1.59.02-3.18.12-6.36.04-9.53-.08-3.29-.41-6.56-1.43-9.71-.42-1.27.13-2.02,1.08-2.66.12-.08.46-.06.54.04.26.32.51.68.65,1.07,1.29,3.61,2.24,7.28,2.26,11.15Zm-9.11-9.05c-.13.14-.36.19-.56.29-.1-.14-.28-.28-.29-.43-.24-3.61-1.03-7.12-2.08-10.57-.8-2.63-1.67-5.25-2.49-7.88-.32-1.01-.59-2.03-.87-3.06-.08-.3-.09-.62-.14-.98.91-1.42,2.03-2.69,3.28-3.84.13-.12.34-.16.52-.22.3-1.12,1.24-1.64,2.13-2.17.24-.14.62-.1.92-.05.31.05.63.16.88.33,4.6,3.07,7.73,7.18,8.81,12.7.27,1.38.18,2.75-.02,4.11-.06.4-.28.8-.51,1.14-.29.44-.65.84-1,1.23-2.85,3.13-5.71,6.27-8.58,9.39Zm-28.71-18.81c.84-.05,1.7-.15,2.51-.38,2.45-.7,4.88-1.45,7.3-2.22,1.43-.45,2.72-1.19,3.9-2.11.69-.54,1.15-1.23,1.29-2.13.02-.55-.14-1.06-.59-1.4-.33-.25-.72-.45-1.12-.56-.93-.25-1.88-.26-2.84-.14-2.33.28-4.58.87-6.74,1.78-1.57.66-3.03,1.52-4.29,2.7-.55.51-1,1.09-1.27,1.8-.48,1.28.5,2.73,1.85,2.65Zm.02-3.11c.71-.62,1.39-1.29,2.18-1.81,2.42-1.58,5.15-2.34,7.97-2.78.7-.11,1.46.03,2.18.14.24.04.44.37.62.53-.08.29-.08.52-.19.67-.19.25-.42.47-.67.65-.94.68-1.98,1.18-3.09,1.54-2.1.68-4.19,1.39-6.29,2.06-.6.19-1.21.33-1.83.44-.42.07-.85.03-1.16-.32-.17-.19-.01-.88.28-1.14Zm1.81,14.17c-.87,0-1.7.15-2.44.58-.91.53-1.8,1.11-2.67,1.72-1.33.93-2.28,2.18-3.01,3.63-.96,1.93-1.52,3.94-1.65,6.09-.03.85-.08,1.69-.07,2.54.01,1.08.35,2.08.94,2.99.93,1.43,2.79,1.85,4.17.87.59-.42,1.16-.95,1.58-1.54,1.41-1.98,2.77-4,4.12-6.02.77-1.15,1.31-2.41,1.81-3.7.5-1.32.65-2.69.52-4.06-.22-2.31-1.51-3.08-3.3-3.09Zm1.39,6.99c-.29.79-.61,1.6-1.06,2.31-1.19,1.88-2.44,3.72-3.7,5.55-.61.89-1.46,1.52-2.46,1.93-.56.23-1.36-.09-1.62-.65-.09-.19-.23-.38-.25-.58-.14-1.26-.24-2.52-.34-3.61.47-2.27.87-4.36,2.06-6.17,1.26-1.92,3.03-3.22,5.15-4.06.19-.08.42-.07.63-.09.91-.11,1.71.44,1.9,1.31.3,1.38.18,2.75-.3,4.06Zm15.01,2.5c.18-2.69-.34-5.26-1.25-7.77-.18-.49-.49-.93-.78-1.37-.24-.37-1.1-.31-1.42.03-.46.49-.66,1.07-.76,1.71-.33,2.21-.38,4.43-.23,6.65.1,1.37.24,2.74.47,4.09.24,1.42.99,2.53,2.44,3.21.37-.32.83-.61,1.14-1.01.24-.31.52-.82.43-1.13-.44-1.48-.15-2.94-.05-4.41Zm-1.46,2.77c-.01.05-.17.09-.26.09-.09,0-.22-.04-.25-.1-.1-.18-.2-.38-.24-.58-.38-1.78-.68-6.65-.52-8.54.01-.14.19-.26.3-.39.14.15.34.28.4.45.19.6.37,1.22.48,1.84.35,1.88.61,3.77.37,6.07-.03.14-.15.65-.28,1.15Zm8.27-25.66c.18,3.28.61,6.52,1.71,9.63.24.69.52,1.39.87,2.03.31.54.72,1.04,1.15,1.5.58.61,1.39.76,2.02.47.64-.29.95-.83,1.01-1.49.12-1.26.22-2.53.28-3.79.14-3.43-.46-6.73-1.79-9.89-.45-1.08-1.03-2.07-1.73-3.02-.64-.86-1.45-1.13-2.46-.94-.7,1.77-1.17,3.58-1.07,5.5Zm2.12-2.49c.07-.14.27-.24.43-.32.06-.03.21.05.27.12.19.25.39.5.53.78,1.75,3.49,2.46,7.19,2.26,11.18-.08.41-.17.93-.28,1.45-.02.08-.13.2-.18.19-.19-.03-.41-.07-.56-.18-.16-.12-.28-.32-.35-.51-1.55-3.88-2.49-7.87-2.22-12.08.01-.21.02-.44.11-.62Zm-1.04-3.02s.01-.03.02-.05c-.02,0-.03.01-.05.02,0,.01,0,.02-.01.04.02,0,.03,0,.05,0Zm-17.19-6.65c1.09-.17,2.39-.07,3.59-.59.6-.26,1.1-.62,1.4-1.22.2-.4-.04-1.23-.44-1.39-.29-.12-.59-.25-.9-.29-2.35-.36-4.36.52-6.29,1.71-.08.05-.16.16-.18.26-.03.18-.09.5-.01.54.83.48,1.72.81,2.83.99Zm1.95-2.09c.18.03.36.09.54.14-.05.05-.11.14-.16.14-.18-.03-.36-.09-.54-.13.05-.05.11-.14.15-.14Z" fill="#123d22"/></g><g><path d="m37.95,150.69l3.37,8.01c.47,1.12,1.57,1.85,2.78,1.85h17.17c1.32,0,2.49-.86,2.88-2.12l2.65-8.5-28.86.76Z" fill="#41481e"/><g><path d="m23.62,105.49c-.3.1-.66.52-.67.68.03,1.78.07,3.63,1.27,5.19.77,1,1.43,1.93,1.72,3.19,2.63,11.22,5.36,22.55,7.99,33.51l.13.52c.09.37.14.75.18,1.11.09.73.18,1.42.57,2.07.29.07.57.15.86.23.75.21,1.52.42,2.27.5,2.71.27,5.63.54,8.53.63,6.01.19,12.12-.29,18.01-.75l.39-.03c1.63-.13,2.99-.31,4.36-1.35.14-1.09.28-2.17.42-3.25v-.1c.35-2.61.66-5.07,1.05-7.6,1.25-8.24,2.57-16.42,3.57-22.63.32-2,.83-4.62,1.92-7.12.61-1.42.96-2.99,1.25-4.48.07-.37-.01-.8-.12-1.29-.03-.17-.07-.33-.1-.5-.21-.04-.41-.09-.6-.13-.6-.13-1.14-.25-1.72-.27-2.28-.07-4.63-.14-6.91-.05-3.71.16-7.41.34-11.12.52h-.15c-3.91.2-7.96.4-11.93.56-4.11.17-8.29.29-12.33.4-2.25.06-4.51.13-6.76.2h-.29c-.62.02-1.26.04-1.8.22Z" fill="#955425"/><path d="m77.84,103.64l-.02-.18-.18-.03c-.31-.06-.61-.12-.89-.18-.61-.13-1.18-.26-1.82-.28-2.28-.07-4.64-.14-6.96-.05-3.71.16-7.41.34-11.12.52-3.96.2-8.05.4-12.08.56-4.11.17-8.28.29-12.33.4-2.25.06-4.51.13-6.76.2h-.28c-.67.03-1.35.04-1.99.25-.5.17-1.14.82-1.13,1.32.03,1.8.07,3.85,1.41,5.59.75.97,1.34,1.81,1.6,2.93,2.62,11.18,5.35,22.54,7.99,33.52l.13.52c.08.33.12.68.17,1.04.1.82.21,1.67.77,2.49l.05.08.09.02c.34.08.68.18,1.02.27.77.21,1.56.44,2.36.52,2.73.28,5.65.54,8.58.63.93.03,1.86.04,2.79.04,5.13,0,10.28-.4,15.29-.79l.38-.03c1.73-.13,3.29-.35,4.86-1.6l.08-.06v-.1c.17-1.18.32-2.36.47-3.52.33-2.61.65-5.08,1.03-7.59,1.26-8.24,2.57-16.42,3.57-22.62.32-1.96.82-4.53,1.87-6.97.64-1.48.99-3.09,1.29-4.61.1-.5,0-1.01-.12-1.56-.05-.24-.1-.49-.13-.74Zm-48.88,15.19c.41,0,.74-.01,1.06,0,1.96.11,3.93.25,5.89.38,4.21.29,8.56.59,12.85.67,7.32.14,14.77-.64,22.15-2.31.45-.1.92-.14,1.43-.18.18-.01.36-.03.56-.05,0,.11.02.22.03.31.03.31.06.56.02.78-1.4,9.47-3.12,20.6-5.23,31.43-4.68,1.94-21.91,2.52-31.04,1.03-.66-.44-.82-1.16-.99-1.91-.03-.14-.06-.27-.09-.41-2.43-9.71-4.8-19.36-7.03-28.41-.06-.23-.06-.49-.07-.85,0-.15,0-.32-.02-.51.18,0,.34,0,.49,0Zm42.39-3.47c-1.69.52-3.43,1.07-5.18,1.34-9.7,1.52-19.17,1.86-28.13.99-.96-.09-1.93-.12-2.87-.16l-.64-.02c-.56-.02-1.12-.03-1.68-.04-.91-.02-1.85-.03-2.76-.09-2.1-.14-2.37-.36-2.67-2.75,1.48.08,2.96.17,4.43.26,3.52.22,7.17.44,10.75.49,4.87.06,9.97-.08,15.58-.42,3.59-.22,7.23-.59,10.74-.95,1.5-.15,3-.31,4.49-.45.15.35.18.65.08.87-.09.22-.31.38-.64.47-.51.15-1.01.31-1.52.46Zm.23-3.89c-1.5.28-3.06.58-4.6.8-9.3,1.35-18.59,1.41-27.24,1.27-2.4-.04-4.84-.23-7.21-.42-.66-.05-1.32-.11-1.98-.16-.62-.05-1.31-.19-2.11-.45-2.76-.87-3.66-2.18-3.69-5.37.42-.49,1.02-.49,1.65-.49.14,0,.29,0,.43,0,1.75-.07,3.5-.13,5.25-.18,1.64-.05,3.28-.1,4.92-.17,4.48-.18,8.95-.37,13.43-.56,6.43-.27,12.85-.54,19.28-.8,1.42-.06,2.85-.04,4.35-.03.65,0,1.31.01,1.99.01.16,1.27-.15,2.37-.44,3.43-.14.49-.28,1-.37,1.5-.11.64-.69,1.05-1.72,1.24-.65.12-1.31.24-1.96.37Z" fill="#41481e"/></g></g><g><path d="m87.11,84.35c-1.38-.57-2.87-1.16-4.41-1.57-2.51-.67-4.85-1.69-7.16-3.11-.21-.13-.43-.27-.64-.4-.51-.32-.99-.63-1.5-.9-.98-.52-1.87-.98-2.79-1.33-2.62-1-5.31-1.09-7.99-.26-3,.93-5.25,2.07-7.1,3.6l-.22.19c-.26.22-.52.44-.81.64-.7.48-1.35.75-2.05.83-.41.05-.82.13-1.23.22-.18.04-.36.08-.54.11l-.19.04-.18-.07c-.07-.03-.14-.05-.2-.08-.17-.06-.35-.12-.52-.23-2.7-1.66-5.77-1.98-9.64-1.03-.42.1-.84.33-1.28.57-1.09.6-2.04,1.43-2.91,2.52-1.5,1.88-3.25,3.58-5.34,5.2-.63.49-1.24,1.07-1.83,1.62l-.49.46c-.69.64-1.18,1.44-1.47,2.39-.49,1.61-.63,3.06-.43,4.43.44,2.98,1.23,5.47,2.41,7.63.3.55.59,1.09.89,1.64.51.94,1.01,1.89,1.54,2.82.54.95.95,2,1.31,3.42.4,1.54.9,3.22,1.54,5.13.4,1.21,1.07,2.41,2.05,3.69,2.01,2.63,4.37,4.82,7.02,6.52,2.53,1.62,4.4,3.25,5.89,5.14,2.36,2.99,5.46,5.15,9.22,6.42.67.23,1.33.47,1.99.71.53.2,1.07.39,1.61.58,2.89,1,5.39,2.61,7.43,4.76.28.3.59.58.88.85.18.16.48.19.69.07l.21-.12c.28-.16.54-.31.73-.48l.51-.48c.81-.76,1.66-1.54,2.38-2.37,1.28-1.46,2.5-3.02,3.68-4.53l.11-.14c1.66-2.12,3.43-3.81,5.41-5.16,2.1-1.44,3.86-3.17,5.25-5.16,3.14-4.49,5.01-9.08,5.73-14.02.14-.94.22-1.92.3-2.87.05-.62.11-1.24.17-1.85.06-.55.11-1.1.16-1.65.13-1.45.27-2.95.58-4.41.67-3.17.53-6.47-.44-10.08-1.28-4.8-4.07-8.12-8.3-9.87Zm-33.64,31.13c-.64,2.23-1.43,4.45-2.83,6.29-.12.15-.24.3-.4.4-.44.25-1.03.01-1.33-.39-.66-.89-.32-2.12-.08-3.1.42-1.74,1.33-3.31,2.23-4.86.32-.55.65-1.11.97-1.66.17-.29.37-.6.7-.66.44-.08.81.35.96.78.37,1.03.1,2.16-.2,3.2Zm-4.56-20.4c-.41,1.01-1.24,1.77-1.95,2.59-.4.46-.77.94-1.2,1.38-.88.89-1.97,1.53-2.89,2.37-.56.5-1.05,1.07-1.65,1.53-.6.46-1.32.8-2.07.74-1.23-.09-2.13-1.2-2.7-2.3-.53-1.02-.36-1.51.32-2.32.69-.82,1.14-1.81,1.78-2.67.68-.93,1.55-1.7,2.41-2.46.95-.84,2.3-1.41,3.56-1.56.53-.06,1.02-.3,1.56-.32.79-.02,1.37-.21,2.07.14.97.49,1.17,1.86.76,2.87Zm36.54,29.87c.01.43-.11.9-.47,1.13-.18.11-.4.15-.61.17-1.56.19-3.16-.02-4.61-.61-1.4-.56-2.64-1.46-3.86-2.35-.73-.54-1.47-1.08-2.2-1.62-2.08-1.54-4.21-3.2-5.34-5.53-.34-.71-.86-1.98-.56-2.77.28-.74,1.52-1.45,2.26-1.56,1-.14,1.96.4,2.82.93,4.42,2.69,9,5.55,11.74,9.95.43.69.81,1.44.84,2.25Zm5.68-23.39c-1.65,1.1-4.95.83-8.26-.72-3.31-1.55-5-2.57-6.11-2.68-1.11-.11-6.89.14-8.85-1.78s-3.43-3.46-3.05-4.48c0,0,.23-2.08,6.32-1.74,6.09.35,15.96,3.86,18.3,6.11,2.33,2.25,3.31,4.18,1.66,5.29Z" fill="#839a3b"/><path d="m87.36,83.74c-1.47-.61-2.96-1.19-4.49-1.6-2.49-.67-4.8-1.69-6.98-3.03-.72-.45-1.43-.93-2.18-1.32-.94-.5-1.88-.99-2.87-1.37-2.77-1.06-5.59-1.15-8.42-.27-2.65.82-5.16,1.94-7.33,3.72-.33.27-.64.55-.99.79-.53.37-1.09.64-1.75.71-.62.07-1.24.23-1.82.34-.24-.1-.45-.15-.63-.26-3.21-1.97-6.64-1.97-10.15-1.11-.5.12-.98.38-1.44.63-1.22.68-2.24,1.6-3.11,2.68-1.53,1.92-3.29,3.59-5.23,5.09-.84.65-1.59,1.4-2.37,2.12-.79.74-1.34,1.64-1.65,2.68-.47,1.54-.69,3.13-.45,4.72.4,2.74,1.14,5.4,2.48,7.85.82,1.49,1.59,3,2.44,4.47.59,1.03.95,2.11,1.24,3.25.45,1.74.98,3.47,1.55,5.18.47,1.42,1.24,2.69,2.15,3.88,2.02,2.64,4.4,4.89,7.19,6.67,2.16,1.39,4.12,2.96,5.72,4.99,2.5,3.17,5.71,5.35,9.53,6.64,1.21.41,2.39.87,3.6,1.29,2.76.96,5.16,2.47,7.16,4.59.29.31.6.6.91.88.39.36,1.01.42,1.48.15.36-.21.75-.41,1.06-.7,1-.94,2.04-1.86,2.94-2.9,1.33-1.52,2.57-3.11,3.81-4.69,1.51-1.93,3.22-3.63,5.27-5.03,2.1-1.44,3.95-3.22,5.42-5.33,3.02-4.33,5.08-9.06,5.84-14.31.23-1.57.3-3.17.48-4.75.22-2,.31-4.03.73-5.99.74-3.52.47-6.97-.45-10.39-1.27-4.78-4.03-8.38-8.69-10.31Zm-30.04-3.94c2.14-1.14,4.32-2.19,6.72-2.69,2.23-.46,4.39-.27,6.43.8.08.04.18.2.16.26-.07.16-.17.39-.31.43-.4.12-.82.22-1.23.24-3.27.12-6.47.74-9.65,1.44-1.33.29-2.61.77-4.18,1.24.74-.8,1.36-1.34,2.07-1.71Zm-1.81,2.84c1.23-.32,2.46-.63,3.68-.97,3.9-1.08,7.89-1.59,11.93-1.55,2.34.02,4.61.46,6.67,1.77,1.53.97,3.3,1.43,5.04,1.89,1.75.46,3.43,1.11,5.02,1.97,1.21.65,2.41,1.34,3.19,2.54.05.07.03.21,0,.29-.02.06-.14.15-.2.13-.31-.07-.62-.14-.91-.26-7.52-3.15-15.34-3.88-23.37-3-2.11.23-4.2.58-6.25,1.07-1.14.28-2.28.41-3.47.21-.83-.85-1.39-1.87-1.9-2.91-.27-.56-.04-1.03.57-1.19Zm.45,7.05c.05.08.11.15.15.23.03.08.03.18.04.27-.05-.08-.11-.15-.14-.24-.03-.08-.03-.18-.05-.27Zm-2.48-4.41c.72.9.74.89.71,1.62-.18-.3-.36-.54-.47-.8-.11-.26-.16-.54-.23-.82Zm-26.17,13.91c-.55-1.79-.39-3.57.22-5.29.24-.67.72-1.3,1.22-1.81.73-.75,1.54-1.45,2.39-2.07,2.05-1.52,3.88-3.25,5.4-5.3.25-.34.53-.66.83-.96.29-.3.59-.62.93-.85,3.31-2.2,8.38-2.58,12.06.65.13.12.22.4.18.57-.04.15-.26.34-.43.37-.93.2-1.86.36-3.5.67-.62.22-1.95.6-3.19,1.17-6.28,2.88-11.56,6.94-15.08,13.03-.1.17-.3.28-.46.41-.14.11-.46-.24-.57-.6Zm12.22,24.37c.02.17-.11.43-.26.54-.1.08-.4.03-.51-.07-2.48-2.41-4.35-5.17-4.94-8.66-.47-2.75-1.52-5.26-2.97-7.64-.77-1.26-1.33-2.64-1.97-3.98-.34-.7-.3-1.42-.06-2.16.35-1.12.86-2.17,1.52-3.13,2.55-3.71,5.62-6.86,9.72-8.88,1.51-.75,2.89-1.78,4.56-2.23,1.73-.86,3.63-1.08,5.51-1.39.93-.15,1.69.21,2.14,1.03,1.18,2.13,2.45,4.21,3.35,6.48.3.76.23,1.47-.3,2.07-.83.95-1.69,1.89-2.57,2.8-1.68,1.75-3.44,3.44-5.07,5.24-2.5,2.75-4.65,5.75-6.13,9.2-1.48,3.45-2.51,6.97-2.02,10.78Zm14.86,12.76c.02.31,0,.63,0,1.03-.33-.08-.66-.07-.88-.22-1.22-.85-2.32-1.85-3.29-2.98-.48-.56-.94-1.15-1.41-1.72-1.02-1.23-2.19-2.3-3.53-3.18-.44-.29-.89-.58-1.33-.87-3.19-2.16-2.35-1.44-2.97-4.79-.45-2.44-.15-4.84.54-7.22,1.18-4.04,3.22-7.6,5.91-10.79,1.09-1.29,2.28-2.51,3.46-3.73,1.62-1.68,3.26-3.33,4.9-4.98.43-.43,1-.33,1.26.23.31.67.59,1.36.88,2.04.64,1.45,1.32,2.89,1.93,4.36,1.09,2.65,2.16,5.3,3.17,7.98.5,1.33.43,2.73-.07,4.05-.41,1.09-.92,2.14-1.49,3.15-.62,1.11-1.4,2.12-2.05,3.22-1.08,1.82-2.2,3.63-3.16,5.51-1.41,2.79-2.13,5.76-1.88,8.91Zm15.68,8.01c.01.28-.17.58-.31,1-.41-.28-.79-.45-1.07-.72-2.1-2.05-4.65-3.26-7.38-4.18-1.3-.44-2.59-.91-3.88-1.38-.53-.19-.91-.58-1.06-1.1-.22-.81-.46-1.63-.52-2.46-.12-1.59.07-3.17.59-4.69.34-1,.72-1.99,1.16-2.95.39-.86.85-1.71,1.34-2.52,1.8-2.98,3.86-5.81,5.35-8.97.03-.07.19-.11.29-.1.08,0,.2.08.23.15.13.28.27.57.35.87.25.92.42,1.86.71,2.76,1.18,3.74,1.88,7.58,2.62,11.42.52,2.69.93,5.41,1.29,8.13.21,1.57.23,3.16.3,4.74Zm8.5-7.99c.04.3,0,.62-.03.93,0,.09-.1.18-.17.26-1.9,2.27-3.8,4.55-5.73,6.8-.26.31-.64.58-1.2.22,0-6.09-1.49-12.07-2.37-18.17.28.04.5.01.62.11,3.29,2.7,6.23,5.73,8.59,9.29.12.18.27.36.29.55Zm13.3-14.67c-1.74,4.04-3.92,7.76-7.35,10.6-1.3,1.08-2.7,2.02-4.31,3.22-.53-.57-.94-.91-1.22-1.34-1.9-2.85-4.34-5.19-6.9-7.42-.88-.77-1.76-1.53-2.66-2.27-.68-.56-1.12-1.26-1.36-2.1-.56-1.93-1.13-3.86-1.7-5.79-.27-.91-.52-1.83-.8-2.74-1.12-3.64-2.26-7.28-3.37-10.93-.05-.16-.02-.45.08-.54.13-.11.42-.14.59-.08,3.83,1.55,7.66,3.09,11.46,4.7,3.71,1.58,7.32,3.35,10.77,5.45,1.64,1,3.15,2.15,4.48,3.53.66.68,1.29,1.4,1.88,2.15.86,1.08,1,2.22.43,3.55Zm3.21-18.57c-.52,3.03-.88,6.08-1.11,9.14-.11,1.47-.44,2.93-.69,4.39-.03.18-.21.33-.32.5-.53-.19-.83-.64-1.18-1.03-1.64-1.83-3.54-3.36-5.68-4.55-2.22-1.24-4.45-2.46-6.74-3.57-4.48-2.17-9.03-4.21-13.72-5.89-1.09-.39-2.13-.94-3.18-1.45-.89-.44-1.55-1.1-1.79-2.1-.72-2.99-1.8-5.87-2.86-8.76-.04-.1-.05-.2-.08-.31-.18-.62.07-1.11.63-1.2,2.82-.44,5.64-.92,8.46-1.31,6.06-.83,12.05-.16,18,1.04,2.73.55,5.23,1.72,7.62,3.13.57.34.98.81,1.23,1.41,1.41,3.4,2.04,6.91,1.42,10.57Zm-40.21,8.92c.04-.3-.04-.63-.11-.94-.11-.52-.76-1.03-1.43-1.1-.44-.05-.86.05-1.13.43-1.3,1.8-2.51,3.66-3.39,5.72-.54,1.27-.96,2.58-1.01,3.98-.02.62.07,1.25.1,1.65.12.32.16.42.2.52.41,1.08,1.69,1.47,2.61.79.25-.19.51-.39.7-.63.32-.42.63-.85.88-1.32,1.53-2.84,2.19-5.94,2.58-9.1Zm-4.18,8.94c-.15.26-.41.46-.59.67-.24-.07-.53-.07-.59-.19-.15-.26-.3-.6-.27-.89.09-.84.18-1.7.43-2.5.6-1.93,1.46-3.76,2.6-5.43.1-.15.33-.26.51-.28.26-.02.37.17.33.44-.34,2.86-.95,5.65-2.42,8.18Zm38.31-25.95c-2.67-1.76-5.58-3-8.67-3.79-3.18-.82-6.43-1.26-9.69-1.57-1.05-.1-2.11-.03-3.17-.03-.97,0-1.87.28-2.74.71-.82.4-1.34,1.52-1.07,2.42.12.4.27.81.51,1.15,1.5,2.14,3.45,3.72,6.03,4.36,1.23.31,2.48.55,3.73.72,2.86.4,5.55,1.21,8.02,2.78.97.62,2.06,1.08,3.15,1.46,1.63.58,3.31.62,5.17.1.4-.21.99-.45,1.5-.81,1.04-.72,1.41-1.87,1.08-3.07-.26-.93-.66-1.8-1.4-2.44-.79-.69-1.58-1.41-2.45-1.99Zm1.57,6.07c-.19.1-.37.2-.56.3-1.34.5-2.71.61-4.05.1-1.09-.41-2.19-.86-3.16-1.49-2.57-1.66-5.42-2.39-8.38-2.83-1.15-.17-2.32-.27-3.46-.52-2.14-.48-3.93-1.55-5.21-3.39-.12-.17-.21-.36-.32-.55-.18-.32,0-.98.33-1.11.49-.19.99-.45,1.5-.48,1.16-.07,2.34-.11,3.5-.02,3.29.25,6.53.79,9.72,1.64,2.06.55,4.03,1.34,5.94,2.28,1.44.71,2.71,1.66,3.82,2.83.45.47.78,1,.98,1.62.2.61-.05,1.3-.65,1.62Zm-47.23,1.08c1.61-1.67,3.26-3.3,4.88-4.97.44-.45.84-.95,1.21-1.46.44-.61.65-1.32.7-2.07.09-1.19-.82-2.3-2.01-2.44-.85-.1-1.69-.07-2.5.23-1.09.41-2.21.75-3.23,1.3-2.25,1.22-4.19,2.84-5.57,5.04-.69,1.11-1,2.3-.91,3.62.15,2.21,2.59,3.7,4.8,2.75.89-.49,1.82-1.16,2.64-2.01Zm-5.98-.95c-.06-1.11.25-2.1.91-2.96,1.7-2.23,3.76-3.99,6.44-4.97.71-.21,1.41-.43,2.13-.61.73-.19,1.52.66,1.25,1.36-.19.48-.4,1-.74,1.38-1.76,1.97-3.56,3.89-5.35,5.84-.66.72-1.46,1.2-2.38,1.51-1.05.35-2.19-.45-2.26-1.54Zm47.98,21.37c-.25-.46-.52-.92-.84-1.34-2.84-3.75-6.25-6.86-10.45-9.04-1.04-.54-2.12-.99-3.28-1.1-.62-.06-1.27-.06-1.88.07-1.38.3-1.99,1.39-2.05,2.5-.06,1.17.17,2.29.8,3.33.95,1.56,2.14,2.89,3.57,3.99,2.59,2.01,5.26,3.91,8.08,5.57.55.32,1.12.6,1.7.86.88.39,1.82.5,2.79.47,1.77-.06,2.95-1.62,2.43-3.26-.06-.2-.15-.4-.4-1.06-.01-.02-.21-.51-.46-.98Zm-.87,2.94c-.35.44-.91.56-1.44.45-.61-.12-1.23-.3-1.81-.55-.58-.25-1.13-.57-1.66-.92-2.46-1.63-4.93-3.25-7.35-4.94-1.48-1.04-2.78-2.29-3.41-4.05-.21-.58-.27-1.22-.29-1.84,0-.27.28-.54.43-.82.33-.07.63-.21.94-.19.96.05,1.88.28,2.74.7,1.04.52,2.1,1,3.07,1.63,3.29,2.14,6.2,4.72,8.51,7.92.18.25.37.52.49.81.25.63.19,1.27-.23,1.79Z" fill="#123d22"/></g></svg>